<mxfile host="Electron" agent="Mozilla/5.0 (Windows NT 10.0; Win64; x64) AppleWebKit/537.36 (KHTML, like Gecko) draw.io/24.7.17 Chrome/128.0.6613.36 Electron/32.0.1 Safari/537.36" version="24.7.17">
  <diagram name="第 1 页" id="Qb5dPGJGo1SfPNPJ51a1">
    <mxGraphModel dx="2150" dy="1048" grid="0" gridSize="10" guides="1" tooltips="1" connect="0" arrows="1" fold="1" page="0" pageScale="1" pageWidth="1169" pageHeight="827" math="0" shadow="0">
      <root>
        <mxCell id="0" />
        <mxCell id="1" parent="0" />
        <mxCell id="t0tTJGkEdYuMFuvtECW5-28" value="" style="rounded=0;whiteSpace=wrap;html=1;fillColor=#fff2cc;strokeColor=#d6b656;" vertex="1" parent="1">
          <mxGeometry x="550" y="350" width="610" height="420" as="geometry" />
        </mxCell>
        <mxCell id="t0tTJGkEdYuMFuvtECW5-26" value="" style="rounded=0;whiteSpace=wrap;html=1;fillColor=#ffe6cc;strokeColor=#d79b00;" vertex="1" parent="1">
          <mxGeometry x="-120" y="350" width="530" height="270" as="geometry" />
        </mxCell>
        <mxCell id="t0tTJGkEdYuMFuvtECW5-21" value="" style="edgeStyle=orthogonalEdgeStyle;rounded=0;orthogonalLoop=1;jettySize=auto;html=1;" edge="1" parent="1" source="t0tTJGkEdYuMFuvtECW5-1" target="t0tTJGkEdYuMFuvtECW5-2">
          <mxGeometry relative="1" as="geometry" />
        </mxCell>
        <mxCell id="t0tTJGkEdYuMFuvtECW5-1" value="User enters password" style="rounded=0;whiteSpace=wrap;html=1;fontSize=16;fontStyle=1;fillColor=#b0e3e6;strokeColor=#0e8088;" vertex="1" parent="1">
          <mxGeometry x="380" y="10" width="200" height="60" as="geometry" />
        </mxCell>
        <mxCell id="t0tTJGkEdYuMFuvtECW5-22" value="" style="edgeStyle=orthogonalEdgeStyle;rounded=0;orthogonalLoop=1;jettySize=auto;html=1;" edge="1" parent="1" source="t0tTJGkEdYuMFuvtECW5-2" target="t0tTJGkEdYuMFuvtECW5-3">
          <mxGeometry relative="1" as="geometry" />
        </mxCell>
        <mxCell id="t0tTJGkEdYuMFuvtECW5-2" value="Encrypt using MD5" style="rounded=0;whiteSpace=wrap;html=1;fontSize=16;fontStyle=1;fillColor=#b1ddf0;strokeColor=#10739e;" vertex="1" parent="1">
          <mxGeometry x="390" y="100" width="180" height="60" as="geometry" />
        </mxCell>
        <mxCell id="t0tTJGkEdYuMFuvtECW5-23" value="" style="edgeStyle=orthogonalEdgeStyle;rounded=0;orthogonalLoop=1;jettySize=auto;html=1;" edge="1" parent="1" source="t0tTJGkEdYuMFuvtECW5-3" target="t0tTJGkEdYuMFuvtECW5-4">
          <mxGeometry relative="1" as="geometry" />
        </mxCell>
        <mxCell id="t0tTJGkEdYuMFuvtECW5-3" value="Transmit the hashed password to the backend" style="rounded=0;whiteSpace=wrap;html=1;fontSize=16;fontStyle=1;fillColor=#fad9d5;strokeColor=#ae4132;" vertex="1" parent="1">
          <mxGeometry x="300" y="190" width="360" height="60" as="geometry" />
        </mxCell>
        <mxCell id="t0tTJGkEdYuMFuvtECW5-24" value="" style="edgeStyle=orthogonalEdgeStyle;rounded=0;orthogonalLoop=1;jettySize=auto;html=1;" edge="1" parent="1" source="t0tTJGkEdYuMFuvtECW5-4" target="t0tTJGkEdYuMFuvtECW5-5">
          <mxGeometry relative="1" as="geometry" />
        </mxCell>
        <mxCell id="t0tTJGkEdYuMFuvtECW5-4" value="Backend receives password" style="rounded=0;whiteSpace=wrap;html=1;fontSize=16;fontStyle=1;fillColor=#cce5ff;strokeColor=#36393d;" vertex="1" parent="1">
          <mxGeometry x="360" y="280" width="240" height="60" as="geometry" />
        </mxCell>
        <mxCell id="t0tTJGkEdYuMFuvtECW5-7" value="" style="edgeStyle=orthogonalEdgeStyle;rounded=0;orthogonalLoop=1;jettySize=auto;html=1;fontSize=16;fontStyle=1" edge="1" parent="1" source="t0tTJGkEdYuMFuvtECW5-5" target="t0tTJGkEdYuMFuvtECW5-6">
          <mxGeometry relative="1" as="geometry" />
        </mxCell>
        <mxCell id="t0tTJGkEdYuMFuvtECW5-11" value="" style="edgeStyle=orthogonalEdgeStyle;rounded=0;orthogonalLoop=1;jettySize=auto;html=1;fontSize=16;fontStyle=1" edge="1" parent="1" source="t0tTJGkEdYuMFuvtECW5-5" target="t0tTJGkEdYuMFuvtECW5-10">
          <mxGeometry relative="1" as="geometry" />
        </mxCell>
        <mxCell id="t0tTJGkEdYuMFuvtECW5-5" value="Operation type" style="strokeWidth=2;html=1;shape=mxgraph.flowchart.decision;whiteSpace=wrap;fontSize=16;fontStyle=1" vertex="1" parent="1">
          <mxGeometry x="430" y="380" width="100" height="100" as="geometry" />
        </mxCell>
        <mxCell id="t0tTJGkEdYuMFuvtECW5-9" value="" style="edgeStyle=orthogonalEdgeStyle;rounded=0;orthogonalLoop=1;jettySize=auto;html=1;fontSize=16;fontStyle=1" edge="1" parent="1" source="t0tTJGkEdYuMFuvtECW5-6" target="t0tTJGkEdYuMFuvtECW5-8">
          <mxGeometry relative="1" as="geometry" />
        </mxCell>
        <mxCell id="t0tTJGkEdYuMFuvtECW5-6" value="Encrypt password BCryptPasswordEncoder.encode()" style="whiteSpace=wrap;html=1;strokeWidth=2;fontSize=16;fontStyle=1;fillColor=#bac8d3;strokeColor=#23445d;" vertex="1" parent="1">
          <mxGeometry x="80" y="383" width="290" height="95" as="geometry" />
        </mxCell>
        <mxCell id="t0tTJGkEdYuMFuvtECW5-8" value="Store encrypted password in database" style="whiteSpace=wrap;html=1;strokeWidth=2;fontSize=16;fontStyle=1;fillColor=#bac8d3;strokeColor=#23445d;" vertex="1" parent="1">
          <mxGeometry x="-100" y="370.5" width="120" height="120" as="geometry" />
        </mxCell>
        <mxCell id="t0tTJGkEdYuMFuvtECW5-13" value="" style="edgeStyle=orthogonalEdgeStyle;rounded=0;orthogonalLoop=1;jettySize=auto;html=1;fontSize=16;fontStyle=1" edge="1" parent="1" source="t0tTJGkEdYuMFuvtECW5-10" target="t0tTJGkEdYuMFuvtECW5-12">
          <mxGeometry relative="1" as="geometry" />
        </mxCell>
        <mxCell id="t0tTJGkEdYuMFuvtECW5-10" value="Query encrypted password from database" style="whiteSpace=wrap;html=1;strokeWidth=2;fontSize=16;fontStyle=1;fillColor=#d0cee2;strokeColor=#56517e;" vertex="1" parent="1">
          <mxGeometry x="570" y="372" width="170" height="116" as="geometry" />
        </mxCell>
        <mxCell id="t0tTJGkEdYuMFuvtECW5-25" value="" style="edgeStyle=orthogonalEdgeStyle;rounded=0;orthogonalLoop=1;jettySize=auto;html=1;" edge="1" parent="1" source="t0tTJGkEdYuMFuvtECW5-12" target="t0tTJGkEdYuMFuvtECW5-14">
          <mxGeometry relative="1" as="geometry" />
        </mxCell>
        <mxCell id="t0tTJGkEdYuMFuvtECW5-12" value="Compare password using BCryptPasswordEncoder.matches()" style="whiteSpace=wrap;html=1;strokeWidth=2;fontSize=16;fontStyle=1;fillColor=#d0cee2;strokeColor=#56517e;" vertex="1" parent="1">
          <mxGeometry x="810" y="382" width="320" height="96" as="geometry" />
        </mxCell>
        <mxCell id="t0tTJGkEdYuMFuvtECW5-17" value="" style="edgeStyle=orthogonalEdgeStyle;rounded=0;orthogonalLoop=1;jettySize=auto;html=1;fontSize=16;fontStyle=1" edge="1" parent="1" source="t0tTJGkEdYuMFuvtECW5-14" target="t0tTJGkEdYuMFuvtECW5-15">
          <mxGeometry relative="1" as="geometry" />
        </mxCell>
        <mxCell id="t0tTJGkEdYuMFuvtECW5-18" value="" style="edgeStyle=orthogonalEdgeStyle;rounded=0;orthogonalLoop=1;jettySize=auto;html=1;fontSize=16;fontStyle=1" edge="1" parent="1" source="t0tTJGkEdYuMFuvtECW5-14" target="t0tTJGkEdYuMFuvtECW5-16">
          <mxGeometry relative="1" as="geometry" />
        </mxCell>
        <mxCell id="t0tTJGkEdYuMFuvtECW5-14" value="Is match?" style="strokeWidth=2;html=1;shape=mxgraph.flowchart.decision;whiteSpace=wrap;fontSize=16;fontStyle=1;fillColor=#d0cee2;strokeColor=#56517e;" vertex="1" parent="1">
          <mxGeometry x="920" y="528" width="100" height="100" as="geometry" />
        </mxCell>
        <mxCell id="t0tTJGkEdYuMFuvtECW5-15" value="Login successful" style="rounded=0;whiteSpace=wrap;html=1;fontSize=16;fontStyle=1;fillColor=#d0cee2;strokeColor=#56517e;" vertex="1" parent="1">
          <mxGeometry x="695" y="548" width="120" height="60" as="geometry" />
        </mxCell>
        <mxCell id="t0tTJGkEdYuMFuvtECW5-16" value="Login failed" style="rounded=0;whiteSpace=wrap;html=1;fontSize=16;fontStyle=1;fillColor=#d0cee2;strokeColor=#56517e;" vertex="1" parent="1">
          <mxGeometry x="910" y="690" width="120" height="60" as="geometry" />
        </mxCell>
        <mxCell id="t0tTJGkEdYuMFuvtECW5-19" value="Yes" style="text;html=1;align=center;verticalAlign=middle;resizable=0;points=[];autosize=1;strokeColor=none;fillColor=none;fontSize=16;fontStyle=1" vertex="1" parent="1">
          <mxGeometry x="860" y="548" width="50" height="30" as="geometry" />
        </mxCell>
        <mxCell id="t0tTJGkEdYuMFuvtECW5-20" value="No" style="text;html=1;align=center;verticalAlign=middle;resizable=0;points=[];autosize=1;strokeColor=none;fillColor=none;fontSize=16;fontStyle=1" vertex="1" parent="1">
          <mxGeometry x="990" y="640" width="40" height="30" as="geometry" />
        </mxCell>
        <mxCell id="t0tTJGkEdYuMFuvtECW5-29" value="&lt;font style=&quot;font-size: 30px;&quot;&gt;Registration&lt;/font&gt;" style="text;html=1;align=center;verticalAlign=middle;whiteSpace=wrap;rounded=0;" vertex="1" parent="1">
          <mxGeometry x="240" y="563" width="60" height="30" as="geometry" />
        </mxCell>
        <mxCell id="t0tTJGkEdYuMFuvtECW5-30" value="&lt;font style=&quot;font-size: 30px;&quot;&gt;Login&lt;/font&gt;" style="text;html=1;align=center;verticalAlign=middle;whiteSpace=wrap;rounded=0;" vertex="1" parent="1">
          <mxGeometry x="625" y="690" width="60" height="30" as="geometry" />
        </mxCell>
      </root>
    </mxGraphModel>
  </diagram>
</mxfile>
